<?xml version="1.0" standalone="no"?>
<!DOCTYPE svg PUBLIC "-//W3C//DTD SVG 20010904//EN"
 "http://www.w3.org/TR/2001/REC-SVG-20010904/DTD/svg10.dtd">
<svg version="1.0" xmlns="http://www.w3.org/2000/svg"
 width="225.000000pt" height="225.000000pt" viewBox="0 0 225.000000 225.000000"
 preserveAspectRatio="xMidYMid meet">

<g transform="translate(0.000000,225.000000) scale(0.100000,-0.100000)"
fill="#000000" stroke="none">
<path d="M451 2114 c-64 -53 -27 -119 112 -199 68 -39 58 -26 -19 25 -65 43
-104 88 -104 122 0 26 28 48 63 48 59 0 157 -129 173 -228 6 -39 8 -40 65 -57
103 -29 230 -99 308 -171 93 -86 138 -175 151 -296 l9 -83 -4 90 c-3 81 -19
153 -38 171 -18 18 -4 45 36 68 23 14 37 26 31 26 -6 0 -28 -11 -49 -26 l-37
-25 -16 23 c-30 45 -118 123 -177 159 -65 38 -205 99 -228 99 -8 0 -20 23 -30
58 -22 79 -91 173 -149 201 -56 27 -60 26 -97 -5z"/>
<path d="M612 1810 c-52 -40 -109 -107 -100 -116 7 -6 112 90 139 127 11 16
18 29 16 29 -3 0 -28 -18 -55 -40z"/>
<path d="M1231 1698 c0 -7 4 -22 9 -33 7 -17 9 -17 9 -2 1 20 5 21 33 6 15 -8
19 -8 14 0 -4 6 -20 18 -37 26 -22 12 -29 13 -28 3z"/>
<path d="M410 1681 c-75 -23 -160 -98 -191 -167 -29 -65 -5 -118 58 -130 64
-12 102 24 117 111 9 51 25 95 44 118 8 9 10 17 5 17 -17 0 -49 -61 -68 -126
-19 -68 -39 -94 -71 -94 -36 0 -55 11 -65 37 -21 55 66 167 166 214 57 28 59
36 5 20z"/>
<path d="M1400 1640 c-8 -6 -36 -8 -62 -4 -59 7 -62 -1 -7 -16 30 -8 45 -8 52
-1 6 6 21 11 34 11 17 0 21 -4 16 -17 -6 -16 -4 -16 16 1 16 15 18 21 9 28
-17 11 -40 10 -58 -2z"/>
<path d="M816 1614 c-24 -24 -19 -30 7 -8 12 10 24 20 26 21 2 2 -1 3 -7 3 -6
0 -18 -7 -26 -16z"/>
<path d="M548 1553 c11 -55 12 -85 3 -156 -11 -84 -10 -91 11 -133 30 -60 144
-168 210 -199 74 -35 95 -30 26 5 -63 33 -155 120 -200 190 -27 43 -28 48 -22
130 5 64 2 101 -10 150 -23 88 -36 97 -18 13z"/>
<path d="M852 1584 c-30 -21 -27 -68 5 -72 16 -2 22 3 25 20 2 15 9 23 21 22
23 -2 22 23 -2 36 -25 13 -22 13 -49 -6z"/>
<path d="M1436 1545 c4 -11 9 -45 12 -77 5 -66 -18 -117 -73 -158 -18 -14 -32
-27 -30 -28 9 -10 68 37 93 72 33 48 37 133 8 181 -9 17 -14 21 -10 10z"/>
<path d="M642 1470 c-12 -12 -22 -24 -22 -27 0 -4 11 4 25 17 23 22 29 30 22
30 -2 0 -13 -9 -25 -20z"/>
<path d="M658 1435 c-14 -30 -2 -58 26 -63 12 -3 16 2 14 15 -2 11 6 22 20 28
32 14 23 39 -16 43 -26 3 -34 -1 -44 -23z"/>
<path d="M1230 1425 c0 -19 25 -36 44 -29 23 9 15 27 -17 35 -19 5 -27 3 -27
-6z"/>
<path d="M922 1375 c-73 -32 -122 -89 -122 -142 0 -85 163 -64 231 30 35 48
39 101 10 117 -27 14 -80 12 -119 -5z"/>
<path d="M1411 1295 c-16 -14 -35 -41 -41 -61 -12 -35 -12 -35 -58 -30 l-47 6
50 -13 c96 -25 211 -106 263 -185 13 -20 13 -25 1 -32 -25 -16 -121 -23 -218
-15 -144 11 -154 10 -254 -37 -116 -54 -176 -58 -213 -15 -20 23 -22 32 -13
55 16 44 69 92 134 121 33 16 71 38 85 50 24 21 23 21 -15 -2 -22 -13 -60 -31
-85 -41 -25 -9 -62 -31 -82 -47 -29 -23 -57 -33 -125 -44 -48 -9 -117 -24
-153 -35 -209 -63 -193 -162 35 -216 121 -29 151 -43 176 -79 13 -19 42 -44
64 -57 38 -22 52 -23 245 -26 276 -5 281 -4 352 69 39 39 70 61 96 68 198 50
263 78 277 121 14 45 -48 95 -149 121 -25 6 -46 14 -46 16 0 3 16 24 36 46 39
43 88 141 99 197 l7 35 -23 -40 c-54 -99 -119 -172 -176 -198 -22 -10 -28 -8
-52 18 -15 17 -44 45 -64 63 l-38 32 24 9 c32 12 67 58 67 87 0 12 -12 36 -26
53 -34 41 -88 43 -133 6z m121 -12 c33 -32 35 -47 9 -89 -23 -38 -66 -52 -90
-29 -10 8 -20 12 -23 9 -4 -3 -16 -1 -27 6 -39 21 -20 89 34 118 33 19 67 13
97 -15z m227 -185 c-52 -76 -96 -112 -123 -102 -12 5 -5 13 28 34 24 15 58 46
76 69 39 48 53 47 19 -1z m-494 -164 c13 -5 14 -8 3 -15 -20 -13 -38 -11 -38
6 0 16 9 19 35 9z m301 -15 c1 -7 5 -22 9 -31 5 -13 2 -18 -9 -18 -10 0 -13 6
-10 15 4 10 0 15 -15 15 -19 0 -20 3 -11 21 12 22 32 21 36 -2z m-756 1 c0 8
2 11 5 8 3 -3 1 -16 -4 -29 -7 -17 -10 -19 -10 -6 -1 9 -5 17 -10 17 -16 0
-18 -24 -4 -39 8 -7 11 -16 8 -19 -3 -4 -10 0 -15 8 -8 13 -10 12 -10 -2 0
-10 -5 -18 -11 -18 -14 0 -4 56 12 77 9 10 15 10 25 2 11 -9 14 -8 14 1z m487
-27 c-3 -10 -5 -4 -5 12 0 17 2 24 5 18 2 -7 2 -21 0 -30z m217 30 c-5 -5 -12
-12 -15 -16 -3 -5 -9 -2 -12 7 -5 12 0 16 15 16 12 0 17 -3 12 -7z m279 -32
c5 -5 -1 -11 -12 -14 -12 -3 -21 -1 -21 4 0 5 -4 9 -10 9 -17 0 -11 -28 8 -39
16 -10 16 -10 -1 -11 -10 0 -20 7 -23 15 -4 8 -11 12 -17 8 -6 -4 -8 0 -4 10
3 10 2 17 -3 17 -6 0 -10 5 -10 11 0 13 79 4 93 -10z m-936 3 c-3 -3 -12 -4
-19 -1 -8 3 -5 6 6 6 11 1 17 -2 13 -5z m-217 -20 c0 -2 -12 -4 -26 -4 -14 0
-23 4 -20 9 6 8 46 4 46 -5z m-65 -4 c-3 -5 -11 -10 -16 -10 -6 0 -7 5 -4 10
3 6 11 10 16 10 6 0 7 -4 4 -10z m262 -6 c-3 -3 -12 -4 -19 -1 -8 3 -5 6 6 6
11 1 17 -2 13 -5z m-217 -14 c0 -5 -2 -10 -4 -10 -3 0 -8 5 -11 10 -3 6 -1 10
4 10 6 0 11 -4 11 -10z m1184 -6 c5 -14 4 -15 -9 -4 -17 14 -19 20 -6 20 5 0
12 -7 15 -16z m-1224 -4 c0 -5 -7 -10 -15 -10 -8 0 -15 5 -15 10 0 6 7 10 15
10 8 0 15 -4 15 -10z m40 -20 c0 -5 -4 -10 -9 -10 -6 0 -13 5 -16 10 -3 6 1
10 9 10 9 0 16 -4 16 -10z m845 0 c55 -6 127 -15 159 -22 65 -12 63 -16 -26
-38 -36 -10 -61 -26 -100 -67 -35 -36 -66 -57 -92 -64 -24 -7 -119 -9 -241 -7
-200 3 -202 3 -242 30 -23 15 -44 35 -47 45 -9 27 -65 61 -113 69 -24 4 -43
10 -43 14 0 8 112 29 214 40 105 11 416 11 531 0z"/>
<path d="M1434 1229 c-5 -8 -3 -9 6 -4 7 4 16 2 22 -6 8 -12 9 -12 6 0 -6 20
-24 25 -34 10z"/>
<path d="M1131 1254 c-1 -29 -57 -104 -79 -105 -10 0 -12 -3 -5 -6 34 -13 105
81 90 120 -3 6 -6 3 -6 -9z"/>
<path d="M1655 1240 c-10 -11 -13 -20 -8 -20 13 0 38 29 31 35 -3 3 -13 -4
-23 -15z"/>
<path d="M1678 1205 c-39 -36 -39 -47 0 -19 18 12 49 55 40 54 -2 0 -20 -16
-40 -35z"/>
<path d="M1743 1204 c-9 -15 -35 -40 -57 -55 -21 -16 -35 -29 -29 -29 17 0 77
50 96 80 10 17 16 30 13 30 -3 0 -13 -12 -23 -26z"/>
<path d="M1000 1206 c0 -2 8 -10 18 -17 15 -13 16 -12 3 4 -13 16 -21 21 -21
13z"/>
<path d="M1827 1144 c-9 -21 -26 -55 -39 -74 -22 -34 -22 -35 -1 -17 25 22 66
103 60 120 -2 6 -11 -7 -20 -29z"/>
<path d="M1856 1097 c-20 -36 -23 -47 -11 -37 17 14 50 79 43 85 -2 2 -16 -20
-32 -48z"/>
<path d="M1902 1095 c-7 -15 -11 -30 -8 -32 7 -7 28 36 24 49 -2 6 -9 -2 -16
-17z"/>
<path d="M1808 761 c-26 -15 -85 -35 -131 -45 -54 -12 -88 -25 -95 -36 -9 -15
-8 -17 11 -14 12 2 5 -3 -15 -12 -21 -9 -38 -21 -38 -27 0 -6 5 -5 13 2 10 8
17 7 25 -1 15 -15 15 -28 1 -28 -5 0 -8 4 -4 9 12 20 -53 7 -81 -16 l-29 -24
175 3 174 3 23 80 c43 154 44 148 -29 106z m-30 -86 c2 -2 -1 -12 -8 -22 -10
-16 -11 -16 -6 0 3 9 1 17 -4 17 -6 0 -10 -6 -10 -14 0 -7 -9 -16 -20 -19 -24
-6 -25 -1 -5 20 8 8 12 19 9 25 -6 9 33 2 44 -7z m-256 -87 c-7 -7 -12 -8 -12
-2 0 14 12 26 19 19 2 -3 -1 -11 -7 -17z"/>
<path d="M510 776 c0 -3 6 -23 14 -43 8 -21 20 -62 26 -90 7 -29 25 -71 42
-94 l30 -41 21 31 c19 27 28 31 70 31 50 0 53 -4 49 -65 -1 -12 8 -3 20 22 12
23 31 44 42 47 44 12 57 6 74 -34 l17 -40 28 35 c24 30 25 35 10 35 -10 0 -28
7 -40 15 -12 8 -29 12 -39 8 -12 -4 -15 -3 -10 5 4 8 -9 30 -33 55 -34 36 -52
45 -104 56 -52 12 -122 35 -199 66 -10 4 -18 4 -18 1z m176 -139 c8 3 14 0 14
-6 0 -6 -8 -11 -17 -10 -19 0 -64 17 -50 18 4 1 2 11 -4 24 -11 19 -9 19 15
-5 15 -15 34 -24 42 -21z m171 -23 c-3 -3 -12 -4 -19 -1 -8 3 -5 6 6 6 11 1
17 -2 13 -5z"/>
<path d="M1351 561 c-30 -5 -32 -8 -18 -19 13 -11 20 -11 41 3 26 17 33 26 19
24 -5 -1 -23 -4 -42 -8z"/>
<path d="M1163 540 c-78 -33 -79 -175 -2 -215 47 -25 116 -15 146 20 47 54 16
76 -35 25 -39 -38 -66 -38 -104 0 -26 26 -30 36 -25 66 7 42 22 63 54 75 24 9
83 -6 83 -22 0 -13 27 -11 36 2 3 6 -3 20 -14 31 -23 23 -103 34 -139 18z"/>
<path d="M520 428 c0 -101 1 -108 20 -108 18 0 20 7 20 73 l1 72 30 -35 30
-35 28 33 c15 17 31 32 35 32 4 0 6 -32 4 -70 -3 -60 -1 -70 14 -70 14 0 17
14 20 100 2 55 2 105 0 110 -8 21 -33 8 -65 -35 l-35 -45 -35 43 c-58 71 -67
62 -67 -65z"/>
<path d="M790 443 c-23 -54 -44 -104 -47 -110 -3 -8 3 -13 16 -13 15 0 25 9
32 30 10 27 15 30 54 30 38 0 44 -3 55 -30 8 -19 20 -30 32 -30 11 0 18 4 16
8 -54 131 -94 212 -103 212 -7 0 -32 -44 -55 -97z m80 -25 c0 -5 -11 -8 -25
-8 -29 0 -29 0 -13 35 l12 26 13 -23 c7 -13 12 -26 13 -30z"/>
<path d="M982 524 c-38 -26 -29 -66 25 -111 47 -40 51 -63 11 -63 -12 0 -30 8
-41 17 -18 17 -19 17 -15 -12 2 -23 9 -30 36 -37 49 -13 82 11 82 57 0 30 -7
40 -42 66 -24 17 -43 36 -43 42 0 16 44 22 58 8 17 -17 27 -13 27 9 0 37 -59
52 -98 24z"/>
<path d="M1413 524 c-93 -46 -71 -190 33 -207 132 -22 197 150 78 206 -43 21
-70 21 -111 1z m106 -41 c11 -10 24 -32 27 -50 8 -41 -30 -83 -76 -83 -38 0
-80 39 -80 75 0 60 82 96 129 58z"/>
<path d="M1580 520 c0 -16 7 -20 35 -20 l35 0 0 -90 c0 -70 3 -90 14 -90 20 0
26 23 26 106 l0 74 35 0 c27 0 35 4 35 19 0 16 -9 18 -90 19 -83 1 -90 0 -90
-18z"/>
<path d="M1820 536 c0 -2 -11 -29 -25 -60 -24 -54 -24 -56 -5 -56 11 0 25 12
33 27 14 26 15 26 21 5 6 -19 46 -33 46 -16 0 20 -45 104 -56 104 -8 0 -14 -2
-14 -4z"/>
<path d="M1886 381 c-4 -5 -3 -17 0 -26 5 -13 8 -14 15 -3 5 7 9 19 9 26 0 14
-16 16 -24 3z"/>
<path d="M1750 350 c-23 -23 -23 -25 -6 -28 23 -5 39 11 34 34 -3 17 -5 17
-28 -6z"/>
</g>
</svg>
